<svg xmlns="http://www.w3.org/2000/svg" version="1.1" xmlns:xlink="http://www.w3.org/1999/xlink" viewBox="0 0 408 408" width="18" height="18" fill="currentColor" stroke="currentColor" stroke-width="7.2">
  <path opacity="1" fill="currentColor" d="M326.257294,246.847717 C326.394897,252.491913 326.711761,257.661194 326.542297,262.814453 C326.498047,264.160461 324.971375,266.578979 324.073181,266.603699 C314.141510,266.877289 304.199524,266.775787 293.924438,266.775787 C294.379211,264.170959 294.728424,262.170868 295.298401,258.906342 C292.452148,260.065186 290.290863,260.558563 288.564819,261.706482 C266.576294,276.330139 234.303391,268.508118 220.726898,249.556580 C199.696167,220.199570 201.489243,187.212036 227.166245,162.102020 C238.434601,151.082458 252.492767,147.457855 268.106934,149.280441 C276.686615,150.281906 284.764374,152.294540 291.618286,157.906906 C292.727234,158.814987 294.184631,159.297531 296.422913,160.470352 C296.103912,157.033218 295.860382,154.408981 295.580658,151.394943 C305.603241,151.394943 315.506866,151.394943 326.255005,151.394943 C326.255005,182.894608 326.255005,214.630707 326.257294,246.847717 M249.026794,185.520294 C236.847839,198.680511 235.650101,214.779739 245.689728,229.197556 C252.808060,239.420090 263.087097,241.554199 274.372650,239.794418 C284.444458,238.223953 292.013336,232.502213 294.869843,222.443283 C296.380585,217.123215 296.635529,211.318405 296.654602,205.729706 C296.693634,194.285431 291.856445,185.002136 281.138000,180.598312 C270.163940,176.089432 259.004730,175.980774 249.026794,185.520294"/>
  <path opacity="1" fill="currentColor" d="M76.309418,148.524872 C92.692818,148.381042 107.344170,152.087921 119.817841,162.649139 C123.345306,165.635788 123.952042,168.304092 120.556038,171.778732 C115.456779,176.996078 110.542679,182.394394 106.455864,186.750107 C98.657578,183.946350 91.737541,180.276749 84.406540,179.036728 C59.009197,174.740829 48.020607,194.634323 50.521397,213.385147 C53.791821,237.906631 76.430687,247.856491 97.498642,234.811981 C106.231712,229.404785 108.253929,229.926376 114.332054,238.546280 C115.934097,240.818283 117.977150,242.852081 120.094727,244.673111 C124.950325,248.848755 125.079506,251.137802 120.135918,255.499023 C107.464035,266.678162 91.990585,269.567078 75.927162,269.163666 C43.472656,268.348663 22.089804,247.837555 18.167177,215.609253 C16.772224,204.148300 18.902077,193.415497 23.532478,183.502258 C27.168949,175.716934 32.373535,168.051697 38.654057,162.252914 C48.850975,152.838150 62.094872,149.436172 76.309418,148.524872"/>
  <path opacity="1" fill="currentColor" d="M385.557007,199.999832 C385.676453,221.306152 385.843414,242.112503 385.821991,262.918671 C385.820618,264.268707 384.404053,266.766998 383.589203,266.790771 C374.158661,267.065796 364.717194,266.966461 354.937439,266.966461 C354.937439,228.124695 354.937439,189.921783 354.937439,151.381546 C365.245697,151.381546 375.278625,151.381546 385.560760,151.381546 C385.560760,167.640442 385.560760,183.570129 385.557007,199.999832"/>
  <path opacity="1" fill="currentColor" d="M149.119232,242.442108 C153.241592,233.500732 160.318405,230.029053 169.395645,230.361404 C178.985245,230.712524 184.951279,235.972717 188.159927,244.834869 C191.091995,252.932983 184.430496,264.676971 174.895294,268.062256 C166.922379,270.892853 159.523239,269.562134 153.683609,263.728149 C147.970596,258.020630 147.501511,250.485001 149.119232,242.442108"/>
  <path opacity="1" fill="currentColor" d="M383.531372,102.545494 C391.575104,115.363953 387.256226,128.660370 373.176178,133.063278 C366.637421,135.107971 361.063080,130.854660 356.687012,126.257347 C350.018829,119.252052 350.911530,107.957314 358.220825,101.242203 C366.245758,93.869629 376.099915,94.272568 383.531372,102.545494"/>
</svg>